{
    "asset" : {
        "generator" : "Khronos glTF Blender I/O v1.4.40",
        "version" : "2.0"
    },
    "scene" : 0,
    "scenes" : [
        {
            "name" : "Scene",
            "nodes" : [
                0
            ]
        }
    ],
    "nodes" : [
        {
            "mesh" : 0,
            "name" : "characterMedium"
        }
    ],
    "materials" : [
        {
            "doubleSided" : true,
            "name" : "skin",
            "pbrMetallicRoughness" : {
                "baseColorFactor" : [
                    0.800000011920929,
                    0.800000011920929,
                    0.800000011920929,
                    0
                ],
                "metallicFactor" : 0,
                "roughnessFactor" : 0.690034806728363
            }
        }
    ],
    "meshes" : [
        {
            "name" : "characterMedium",
            "primitives" : [
                {
                    "attributes" : {
                        "POSITION" : 0,
                        "NORMAL" : 1,
                        "TEXCOORD_0" : 2,
                        "COLOR_0" : 3
                    },
                    "indices" : 4,
                    "material" : 0
                }
            ]
        }
    ],
    "accessors" : [
        {
            "bufferView" : 0,
            "componentType" : 5126,
            "count" : 1029,
            "max" : [
                1.809532642364502,
                3.444046974182129,
                0.3852527141571045
            ],
            "min" : [
                -1.80905020236969,
                0.0006841139402240515,
                -0.39900103211402893
            ],
            "type" : "VEC3"
        },
        {
            "bufferView" : 1,
            "componentType" : 5126,
            "count" : 1029,
            "type" : "VEC3"
        },
        {
            "bufferView" : 2,
            "componentType" : 5126,
            "count" : 1029,
            "type" : "VEC2"
        },
        {
            "bufferView" : 3,
            "componentType" : 5123,
            "count" : 1029,
            "normalized" : true,
            "type" : "VEC4"
        },
        {
            "bufferView" : 4,
            "componentType" : 5123,
            "count" : 4812,
            "type" : "SCALAR"
        }
    ],
    "bufferViews" : [
        {
            "buffer" : 0,
            "byteLength" : 12348,
            "byteOffset" : 0
        },
        {
            "buffer" : 0,
            "byteLength" : 12348,
            "byteOffset" : 12348
        },
        {
            "buffer" : 0,
            "byteLength" : 8232,
            "byteOffset" : 24696
        },
        {
            "buffer" : 0,
            "byteLength" : 8232,
            "byteOffset" : 32928
        },
        {
            "buffer" : 0,
            "byteLength" : 9624,
            "byteOffset" : 41160
        }
    ],
    "buffers" : [
        {
            "byteLength" : 50784,
            "uri" : "data:application/octet-stream;base64,"
        }
    ]
}
